# AST/ASF file generated using VICON BodyLanguage
# -----------------------------------------------
:version 1.10
:name VICON
:units
  mass 1.0
  length 0.45
  angle deg
:documentation
   .ast/.asf automatically generated from VICON data using
   VICON BodyBuilder and BodyLanguage model FoxedUp or BRILLIANT.MOD
:root
   order TX TY TZ RX RY RZ
   axis XYZ
   position 0 0 0  
   orientation 0 0 0 
:bonedata
  begin
     id 1 
     name lhipjoint
     direction 0.567725 -0.736092 0.368589 
     length 2.42353 
     axis 0 0 0  XYZ
  end
  begin
     id 2 
     name lfemur
     direction 0.34202 -0.939693 0  
     length 7.24894  
     axis 0 0 20  XYZ
    dof rx ry rz
    limits (-160.0 20.0)
           (-70.0 70.0)
           (-60.0 70.0)
  end
  begin
     id 3 
     name ltibia
     direction 0.34202 -0.939693 0   
     length 7.6997   
     axis 0 0 20   XYZ
    dof rx
    limits (-10.0 170.0)
  end
  begin
     id 4 
     name lfoot
     direction 0.100767 -0.276854 0.955614   
     length 2.37556   
     axis -90 7.62852e-016 20   XYZ
    dof rx rz
    limits (-45.0 90.0)
           (-70.0 20.0)
  end
  begin
     id 5 
     name ltoes
     direction 1.53592e-011 -4.21894e-011 1   
     length 1.18363   
     axis -90 7.62852e-016 20   XYZ
    dof rx
    limits (-90.0 20.0)
  end
  begin
     id 6 
     name rhipjoint
     direction -0.556459 -0.742938 0.372017   
     length 2.4012  
     axis 0 0 0  XYZ 
  end
  begin
     id 7 
     name rfemur
     direction -0.34202 -0.939693 0   
     length 7.5119   
     axis 0 0 -20   XYZ
    dof rx ry rz
    limits (-160.0 20.0)
           (-70.0 70.0)
           (-70.0 60.0)
  end
  begin
     id 8 
     name rtibia
     direction -0.34202 -0.939693 0   
     length 7.50155   
     axis 0 0 -20   XYZ
    dof rx
    limits (-10.0 170.0)
 end
 begin
     id 9 
     name rfoot
     direction -0.118427 -0.325376 0.938139   
     length 2.32487  
     axis -90 -7.62852e-016 -20   XYZ
    dof rx rz
    limits (-45.0 90.0)
           (-20.0 70.0)
  end
  begin
     id 10 
     name rtoes
     direction -1.53525e-011 -4.21868e-011 1   
     length 1.15233   
     axis -90 -7.62852e-016 -20   XYZ
    dof rx
    limits (-90.0 20.0)
  end
  begin
     id 11 
     name lowerback
     direction 0.0287568 0.999577 -0.00434502   
     length 2.15243   
     axis 0 0 0   XYZ
    dof rx ry rz
    limits (-20.0 45.0)
           (-30.0 30.0)
           (-30.0 30.0)
  end
  begin
     id 12 
     name upperback
     direction 0.0294009 0.99956 0.00404628   
     length 2.15427   
     axis 0 0 0   XYZ
    dof rx ry rz
    limits (-20.0 45.0)
           (-30.0 30.0)
           (-30.0 30.0)
  end
  begin
     id 13 
     name thorax
     direction 0.0151014 0.999868 0.0059419   
     length 2.14898   
     axis 0 0 0   XYZ
    dof rx ry rz
    limits (-20.0 45.0)
           (-30.0 30.0)
           (-30.0 30.0)
  end
  begin
     id 14 
     name lowerneck
     direction -0.0249197 0.989906 0.139515   
     length 1.6861   
     axis 0 0 0   XYZ
    dof rx ry rz
    limits (-20.0 45.0)
           (-30.0 30.0)
           (-30.0 30.0)
  end
  begin
     id 15 
     name upperneck
     direction 0.0438463 0.988795 -0.142693   
     length 1.71276   
     axis 0 0 0   XYZ
    dof rx ry rz
    limits (-20.0 45.0)
           (-30.0 30.0)
           (-30.0 30.0)
  end
  begin
     id 16
     name head
     direction 0.0148499 0.997845 -0.0639186  
     length 1.7209  
     axis 0 0 0   XYZ
    dof rx ry rz
    limits (-20.0 45.0)
           (-30.0 30.0)
           (-30.0 30.0)
  end
  begin
     id 17 
     name lclavicle
     direction 0.940298 0.323464 -0.105876  
     length 3.9048  
     axis 0 0 0   XYZ
    dof ry rz
    limits (-20.0 10.0)
           (0.0 20.0)
  end
  begin
     id 18 
     name lhumerus
     direction 1 -4.48954e-011 -4.9675e-028   
     length 4.6851   
     axis 180 -30 -90   XYZ
    dof rx ry rz
    limits (-60.0 90.0)
           (-90.0 90.0)
           (-90.0 90.0)
  end
  begin
     id 19
     name lradius
     direction 1 -4.48992e-011 -1.03359e-026   
     length 3.39626   
     axis 180 -30 -90   XYZ
    dof rx
    limits (-10.0 170.0)
  end
  begin
     id 20
     name lwrist
     direction 1 -4.48906e-011 -1.67336e-026   
     length 1.69813   
     axis 9.90442e-015 90 90   XYZ
    dof ry
    limits (-180.0 0.0)
 end
  begin
     id 21 
     name lhand
     direction 1 -4.49006e-011 -3.34673e-026   
     length 0.486078   
     axis 2.1355e-014 90 90   XYZ
    dof rx rz
    limits (-90.0 90.0)
           (-45.0 45.0)
  end
  begin
     id 22 
     name lfingers
     direction 1 -4.48992e-011 -6.69345e-026   
     length 0.391889   
     axis 4.27099e-014 90 90   XYZ
    dof rx
    limits (0.0 90.0)
  end
  begin
     id 23
     name lthumb
     direction 0.707107 -6.34926e-011 0.707107   
     length 0.562676   
     axis -90 45 2.85299e-015   XYZ
    dof rx rz
    limits (-45.0 45.0)
           (-45.0 45.0)
  end
  begin
     id 24 
     name rclavicle
     direction -0.882459 0.414895 -0.221648   
     length 3.44646  
     axis 0 0 0   XYZ 
    dof ry rz
    limits (-10.0 20.0)
           (-20.0 0.0)
  end
  begin
     id 25 
     name rhumerus
     direction -1 -4.48962e-011 -2.37984e-027  
     length 5.55576   
     axis 180 30 90   XYZ
    dof rx ry rz
    limits (-90.0 60.0)
           (-90.0 90.0)
           (-90.0 90.0)
  end
  begin
     id 26 
     name rradius
     direction -1 -4.48982e-011 -6.86791e-027   
     length 3.32774   
     axis 180 30 90   XYZ
    dof rx
    limits (-10.0 170.0)
  end
  begin
     id 27 
     name rwrist
     direction -1 -4.48961e-011 -1.67336e-026   
     length 1.66387   
     axis 9.90442e-015 -90 -90   XYZ
    dof ry
    limits (-180.0 0.0)
  end
  begin
     id 28
     name rhand
     direction -1 -4.4897e-011 -3.34673e-026   
     length 0.507628   
     axis 2.1355e-014 -90 -90   XYZ
    dof rx rz
    limits (-90.0 90.0)
           (-45.0 45.0)
  end
  begin
     id 29
     name rfingers
     direction -1 -4.48854e-011 -6.69345e-026   
     length 0.409263   
     axis 4.27099e-014 -90 -90   XYZ
    dof rx
    limits (0.0 90.0)
  end
  begin
     id 30
     name rthumb
     direction -0.707107 -6.34913e-011 0.707107   
     length 0.587622   
     axis -90 -45 -2.85299e-015   XYZ
    dof rx rz
    limits (-45.0 45.0)
           (-45.0 45.0)
  end
:hierarchy
  begin
    root lhipjoint rhipjoint lowerback
    lhipjoint lfemur
    lfemur ltibia
    ltibia lfoot
    lfoot ltoes
    rhipjoint rfemur
    rfemur rtibia
    rtibia rfoot
    rfoot rtoes
    lowerback upperback
    upperback thorax
    thorax lowerneck lclavicle rclavicle
    lowerneck upperneck
    upperneck head
    lclavicle lhumerus
    lhumerus lradius
    lradius lwrist
    lwrist lhand lthumb
    lhand lfingers
    rclavicle rhumerus
    rhumerus rradius
    rradius rwrist
    rwrist rhand rthumb
    rhand rfingers
  end

#!OML:ASF E:\motion texture\Top Level 1\Subject 1\Session 1\male.ASF
:FULLY-SPECIFIED
:DEGREES
48
root 25.2223 17.2599 4.94016 1.08998 -86.227 2.537
lowerback -0.359402 -4.54205 -2.13647
upperback -1.95273 -6.07447 3.15831
thorax -1.24302 -3.00895 4.45991
lowerneck -19.1847 -2.14404 -4.94259
upperneck 15.2048 -2.53959 4.97768
head 7.98428 -1.00162 2.15587
rclavicle -2.85753e-016 1.82882e-014
rhumerus -42.7039 4.03665 -80.0869
rradius 52.9145
rwrist -1.37344
rhand -7.26035 -9.14893
rfingers 7.12502
rthumb 18.6204 -38.2777
lclavicle -2.85753e-016 1.82882e-014
lhumerus -29.8887 -14.2091 88.7624
lradius 66.4215
lwrist 5.08194
lhand -11.359 8.16545
lfingers 7.12502
lthumb 14.6747 37.6261
rfemur -42.1218 -5.77089 20.7587
rtibia 51.3507
rfoot 3.8777 -4.57592
rtoes 7.08251
lfemur 8.0255 -3.43583 -20.1438
ltibia 25.9041
lfoot -15.0849 -6.88463
ltoes -18.7985
49
root 25.0328 17.2644 4.89988 7.04771 -86.5555 -3.34927
lowerback -0.764873 -4.38905 -1.92717
upperback -1.98098 -5.86921 3.25629
thorax -1.07461 -2.91292 4.41291
lowerneck -19.129 -2.12755 -4.94821
upperneck 15.3197 -2.50768 4.89883
head 8.01028 -0.995858 2.13519
rclavicle -7.48471e-015 -7.15625e-015
rhumerus -41.7274 4.88949 -81.316
rradius 53.9877
rwrist -1.81296
rhand -7.43531 -9.30506
rfingers 7.12502
rthumb 18.4521 -38.4499
lclavicle -7.48471e-015 -7.15625e-015
lhumerus -31.4215 -13.8241 89.095
lradius 65.1652
lwrist 4.70094
lhand -11.4694 7.96215
lfingers 7.12502
lthumb 14.5682 37.4306
rfemur -39.611 -5.44712 21.4688
rtibia 48.9599
rfoot 0.522622 -3.92384
rtoes 9.13203
lfemur 6.81398 -2.94196 -19.1798
ltibia 28.7116
lfoot -13.2908 -8.13218
ltoes -20.6086
50
root 24.8486 17.2714 4.85894 15.0891 -86.8844 -11.3505
lowerback -1.08647 -4.20372 -1.65543
upperback -2.00504 -5.62357 3.35112
thorax -0.957774 -2.79619 4.3377
lowerneck -19.0884 -2.11904 -4.95655
upperneck 15.437 -2.48775 4.83266
head 8.04062 -0.994526 2.11768
rclavicle 5.71661e-015 1.59028e-014
rhumerus -40.7037 5.7766 -82.5721
rradius 55.1592
rwrist -2.26794
rhand -7.57934 -9.44574
rfingers 7.12502
rthumb 18.3136 -38.6037
lclavicle 5.71661e-015 1.59028e-014
lhumerus -32.9137 -13.4358 89.3648
lradius 63.8029
lwrist 4.36968
lhand -11.5262 7.82199
lfingers 7.12502
lthumb 14.5135 37.2943
rfemur -37.2697 -5.11327 22.2573
rtibia 46.5293
rfoot -2.10346 -3.56216
rtoes 11.7903
lfemur 5.26414 -2.36885 -18.1186
ltibia 31.9691
lfoot -10.7694 -9.47165
ltoes -22.0377
51
root 24.6715 17.2809 4.81812 26.0841 -87.1763 -22.3431
lowerback -1.29968 -3.98039 -1.3107
upperback -2.02305 -5.32975 3.44779
thorax -0.904242 -2.65495 4.23475
lowerneck -19.0716 -2.12856 -4.99091
upperneck 15.5573 -2.48792 4.78592
head 8.07778 -1.00204 2.10842
rclavicle -9.64727e-015 -2.3059e-014
rhumerus -39.6065 6.70448 -83.8266
rradius 56.3939
rwrist -2.73202
rhand -7.69817 -9.53295
rfingers 7.12502
rthumb 18.1992 -38.7016
lclavicle -9.64727e-015 -2.3059e-014
lhumerus -34.3427 -13.0408 89.573
lradius 62.3518
lwrist 4.13462
lhand -11.4561 7.70919
lfingers 7.12502
lthumb 14.581 37.1767
rfemur -35.1381 -4.75669 23.1268
rtibia 44.1886
rfoot -4.04136 -3.49083
rtoes 14.1525
lfemur 3.38617 -1.73127 -16.9792
ltibia 35.6192
lfoot -7.38524 -10.74
ltoes -22.7944
52
root 24.5038 17.2925 4.77875 41.1042 -87.3567 -37.3983
lowerback -1.39872 -3.71182 -0.854589
upperback -2.02152 -4.97756 3.54435
thorax -0.905933 -2.48502 4.07922
lowerneck -19.0919 -2.15735 -5.03484
upperneck 15.6623 -2.51264 4.75717
head 8.11794 -1.01937 2.10349
rclavicle 2.95754e-014 -1.35174e-014
rhumerus -38.4144 7.6456 -85.0606
rradius 57.695
rwrist -3.16293
rhand -7.82843 -9.59391
rfingers 7.12502
rthumb 18.0739 -38.7742
lclavicle 2.95754e-014 -1.35174e-014
lhumerus -35.7026 -12.6518 89.6996
lradius 60.8869
lwrist 4.01855
lhand -11.2635 7.5724
lfingers 7.12502
lthumb 14.7667 37.0264
rfemur -33.2407 -4.33282 24.0881
rtibia 42.0784
rfoot -5.42527 -3.58837
rtoes 16.1464
lfemur 1.20163 -1.02951 -15.7628
ltibia 39.5987
lfoot -3.17296 -11.7534
ltoes -22.5467
